<svg width="313" height="312" viewBox="0 0 313 312" fill="none" xmlns="http://www.w3.org/2000/svg">
<path d="M143.564 306.85L145.92 307.125L142.406 292.071L139.888 291.777L133.003 305.618L135.359 305.893L140.753 294.595L140.915 294.614L143.564 306.85Z" fill="black"/>
<path d="M122.799 288.345C119.822 287.575 117.312 289.252 116.468 292.519C115.619 295.806 117.002 298.488 119.979 299.257C122.957 300.027 125.466 298.35 126.315 295.063C127.159 291.796 125.777 289.114 122.799 288.345ZM122.346 290.069C124.292 290.572 124.761 292.505 124.237 294.533C123.715 296.555 122.363 298.039 120.417 297.537C118.484 297.037 118.021 295.084 118.543 293.062C119.067 291.033 120.414 289.569 122.346 290.069Z" fill="black"/>
<path d="M110.144 284.697L108.152 283.962L104.374 294.196L106.367 294.932L110.144 284.697ZM104.778 296.139C104.091 295.886 103.322 296.208 103.081 296.861C102.84 297.514 103.213 298.265 103.9 298.518C104.593 298.774 105.358 298.443 105.599 297.79C105.84 297.137 105.471 296.395 104.778 296.139Z" fill="black"/>
<path d="M101.025 281.06L99.1007 280.162L96.2854 286.2C95.6821 287.494 94.2492 287.962 92.8846 287.326C92.4855 287.14 92.0679 286.859 91.9344 286.742L91.076 288.583C91.2571 288.698 91.6279 288.895 91.8725 289.009C93.0311 289.549 94.3286 289.355 95.1843 288.461L95.2873 288.509L94.5549 290.079L96.4152 290.947L101.025 281.06Z" fill="black"/>
<path d="M80.319 269.862L78.622 268.585L74.5786 273.96C73.6948 275.135 72.257 275.333 71.2922 274.607C70.35 273.899 70.167 272.783 70.88 271.835L75.2394 266.041L73.548 264.768L69.368 270.325C68.5781 271.375 67.3647 271.653 66.2579 270.82C65.3612 270.146 64.9991 269.091 65.8872 267.911L70.1654 262.224L68.4684 260.947L64.0706 266.793C62.572 268.785 62.9372 270.615 64.515 271.802C65.7693 272.746 67.1641 272.853 68.2843 272.238L68.3751 272.306C68.038 273.546 68.4028 274.727 69.5663 275.602C70.7184 276.469 72.0067 276.54 73.0915 275.854L73.1993 275.935L72.1319 277.354L73.7608 278.58L80.319 269.862Z" fill="black"/>
<path d="M59.5882 252.223C57.429 250.033 54.4146 250.183 52.0124 252.551C49.5949 254.935 49.4029 257.947 51.5621 260.137C53.7212 262.327 56.7356 262.177 59.153 259.794C61.5553 257.425 61.7473 254.413 59.5882 252.223ZM58.3138 253.47C59.7249 254.901 59.134 256.8 57.642 258.271C56.1552 259.737 54.2326 260.316 52.8214 258.885C51.4202 257.464 52.0264 255.55 53.5132 254.084C55.0052 252.613 56.9126 252.049 58.3138 253.47Z" fill="black"/>
<path d="M44.1471 244.924C42.7644 245.981 41.3275 245.738 40.4306 244.564C39.5553 243.418 39.7755 242.151 41.034 241.189L46.3446 237.132L45.0554 235.444L39.5416 239.657C37.3971 241.296 37.1752 243.333 38.5291 245.105C39.5252 246.409 40.7801 246.8 42.0062 246.497L42.0881 246.605L40.6772 247.683L41.9147 249.302L50.5832 242.679L49.294 240.992L44.1471 244.924Z" fill="black"/>
<path d="M21.2393 212.878C18.6369 214.653 18.03 217.632 19.3404 220.414C20.9443 223.819 24.6784 225.13 28.887 223.148C33.0955 221.165 34.4691 217.465 32.8592 214.046C31.4973 211.155 28.6898 209.894 25.8848 210.69L26.8225 212.697C28.6663 212.245 30.2574 213.223 31.0412 214.887C32.1034 217.142 31.177 219.659 27.9579 221.175C24.7646 222.679 22.2115 221.809 21.1433 219.541C20.3534 217.864 20.6352 216.012 22.1835 214.882L21.2393 212.878Z" fill="black"/>
<path d="M13.1129 204.613L13.8055 206.881L26.1889 197.628L25.4487 195.203L10.0087 194.444L10.7013 196.713L23.2137 197.126L23.2614 197.282L13.1129 204.613Z" fill="black"/>
<path d="M12.9839 166.262L13.5714 172.684L15.4033 172.516L14.8158 166.094L12.9839 166.262Z" fill="black"/>
<path d="M5.62052 143.412L5.35108 145.769L20.3969 142.22L20.6849 139.701L6.82815 132.849L6.55871 135.205L17.8688 140.573L17.8503 140.735L5.62052 143.412Z" fill="black"/>
<path d="M24.0781 122.605C24.8405 119.625 23.1577 117.12 19.8895 116.284C16.6006 115.442 13.9211 116.831 13.1587 119.81C12.3963 122.79 14.0791 125.295 17.368 126.137C20.6363 126.973 23.3157 125.584 24.0781 122.605ZM22.3529 122.156C21.8546 124.103 19.9226 124.576 17.8929 124.057C15.87 123.539 14.3823 122.191 14.8806 120.244C15.3754 118.31 17.3279 117.842 19.3508 118.36C21.3806 118.879 22.8477 120.222 22.3529 122.156Z" fill="black"/>
<path d="M27.696 109.941L28.4267 107.947L18.1837 104.193L17.4531 106.187L27.696 109.941ZM16.2416 104.601C16.4933 103.914 16.17 103.145 15.5165 102.906C14.8629 102.666 14.1126 103.042 13.8609 103.729C13.6068 104.422 13.9392 105.187 14.5927 105.426C15.2463 105.666 15.9875 105.295 16.2416 104.601Z" fill="black"/>
<path d="M31.3124 100.814L32.2054 98.8876L26.1611 96.0862C24.8659 95.4859 24.3945 94.054 25.0276 92.688C25.2128 92.2884 25.4927 91.8702 25.6095 91.7365L23.7666 90.8823C23.6512 91.0637 23.4557 91.4349 23.3422 91.6798C22.8046 92.8397 23.0019 94.1367 23.8979 94.9903L23.8501 95.0934L22.2778 94.3647L21.4147 96.2269L31.3124 100.814Z" fill="black"/>
<path d="M42.4624 80.082L43.7351 78.3821L38.351 74.3511C37.1742 73.47 36.9727 72.0327 37.6963 71.0661C38.4029 70.1224 39.5178 69.9368 40.4672 70.6476L46.272 74.9935L47.5405 73.2993L41.9745 69.1321C40.9227 68.3447 40.6418 67.1318 41.4718 66.0232C42.1444 65.1249 43.198 64.7603 44.3806 65.6457L50.0774 69.9108L51.3501 68.2108L45.4941 63.8266C43.4985 62.3325 41.6693 62.702 40.486 64.2825C39.5453 65.539 39.4414 66.934 40.0588 68.0528L39.9907 68.1437C38.7503 67.8096 37.5702 68.177 36.6977 69.3426C35.8336 70.4967 35.7651 71.7851 36.4535 72.8683L36.3726 72.9764L34.9512 71.9122L33.7296 73.5439L42.4624 80.082Z" fill="black"/>
<path d="M60.0532 59.3105C62.238 57.1463 62.0816 54.1323 59.7075 51.7355C57.3184 49.3236 54.306 49.1385 52.1211 51.3027C49.9363 53.4669 50.0927 56.4809 52.4818 58.8928C54.8559 61.2896 57.8683 61.4747 60.0532 59.3105ZM58.8037 58.039C57.3757 59.4535 55.4751 58.8669 54.0007 57.3784C52.5312 55.8949 51.9477 53.9737 53.3757 52.5592C54.7936 51.1547 56.7092 51.7564 58.1786 53.2399C59.6531 54.7284 60.2216 56.6345 58.8037 58.039Z" fill="black"/>
<path d="M67.3165 43.8525C66.2569 42.4722 66.4965 41.0348 67.6683 40.1352C68.8119 39.2572 70.08 39.4745 71.0445 40.7308L75.1142 46.032L76.7987 44.7389L72.5732 39.2349C70.9297 37.0941 68.8917 36.8769 67.1227 38.235C65.8214 39.234 65.4335 40.4899 65.7384 41.7152L65.6314 41.7974L64.5502 40.389L62.9333 41.6303L69.5764 50.2834L71.2609 48.9903L67.3165 43.8525Z" fill="black"/>
<path d="M99.3104 20.8709C97.5291 18.2726 94.5492 17.6726 91.7701 18.9894C88.3684 20.6012 87.0662 24.3383 89.0581 28.5423C91.05 32.7462 94.754 34.1113 98.1685 32.4934C101.057 31.1249 102.311 28.3144 101.509 25.5113L99.5036 26.4537C99.9602 28.2965 98.9861 29.8897 97.3238 30.6774C95.071 31.7448 92.5521 30.8242 91.0285 27.6086C89.5171 24.4188 90.3813 21.8637 92.6469 20.7902C94.3221 19.9965 96.1747 20.274 97.3079 21.8197L99.3104 20.8709Z" fill="black"/>
<path d="M107.556 12.7254L105.289 13.4232L114.571 25.7853L116.994 25.0394L117.718 9.59772L115.451 10.2955L115.067 22.8089L114.911 22.8569L107.556 12.7254Z" fill="black"/>
<path d="M145.907 12.508L139.486 13.1103L139.658 14.9418L146.079 14.3395L145.907 12.508Z" fill="black"/>
<path d="M168.74 5.0919L166.383 4.82791L169.966 19.8655L172.485 20.1477L179.306 6.27515L176.949 6.01115L171.607 17.3336L171.445 17.3154L168.74 5.0919Z" fill="black"/>
<path d="M189.589 23.5014C192.57 24.2569 195.072 22.5683 195.901 19.2981C196.735 16.0073 195.34 13.3311 192.359 12.5755C189.378 11.82 186.876 13.5086 186.042 16.7994C185.213 20.0696 186.608 22.7458 189.589 23.5014ZM190.034 21.7751C188.086 21.2813 187.608 19.3505 188.123 17.3195C188.636 15.2954 189.981 13.8046 191.929 14.2984C193.864 14.7887 194.336 16.7402 193.823 18.7643C193.309 20.7952 191.969 22.2654 190.034 21.7751Z" fill="black"/>
<path d="M202.262 27.0901L204.257 27.8161L207.987 17.5645L205.992 16.8385L202.262 27.0901ZM207.575 15.6233C208.262 15.8735 209.031 15.5484 209.269 14.8943C209.507 14.2402 209.129 13.4908 208.442 13.2406C207.748 12.9881 206.984 13.3223 206.746 13.9764C206.508 14.6304 206.881 15.3708 207.575 15.6233Z" fill="black"/>
<path d="M211.397 30.6855L213.326 31.574L216.113 25.5233C216.71 24.2267 218.141 23.7519 219.509 24.3819C219.909 24.5662 220.327 24.8452 220.461 24.9616L221.311 23.1167C221.13 23.0018 220.758 22.8071 220.513 22.6942C219.352 22.1593 218.055 22.3596 217.204 23.2576L217.1 23.21L217.826 21.636L215.961 20.7772L211.397 30.6855Z" fill="black"/>
<path d="M232.155 41.7873L233.857 43.0561L237.876 37.6627C238.754 36.4838 240.191 36.279 241.159 37.0003C242.105 37.7048 242.293 38.8192 241.584 39.7703L237.252 45.5852L238.949 46.8497L243.103 41.2741C243.888 40.2204 245.101 39.9368 246.211 40.7643C247.111 41.4347 247.478 42.4875 246.595 43.6722L242.343 49.3788L244.046 50.6476L248.417 44.7815C249.906 42.7824 249.533 40.9541 247.949 39.7744C246.691 38.8366 245.296 38.7359 244.178 39.3559L244.087 39.288C244.418 38.0469 244.048 36.8677 242.881 35.9978C241.725 35.1363 240.436 35.0708 239.354 35.7617L239.246 35.6811L240.307 34.2573L238.672 33.0394L232.155 41.7873Z" fill="black"/>
<path d="M252.967 59.3305C255.136 61.5103 258.15 61.3469 260.541 58.9673C262.947 56.5726 263.125 53.5598 260.956 51.38C258.787 49.2001 255.773 49.3635 253.367 51.7582C250.976 54.1378 250.797 57.1506 252.967 59.3305ZM254.235 58.0781C252.818 56.6533 253.4 54.7514 254.885 53.2735C256.365 51.8006 258.285 51.2127 259.703 52.6374C261.11 54.0521 260.513 55.9691 259.033 57.4419C257.548 58.9198 255.643 59.4927 254.235 58.0781Z" fill="black"/>
<path d="M268.441 66.5581C269.819 65.4953 271.257 65.7315 272.159 66.9012C273.04 68.0428 272.826 69.3114 271.572 70.2788L266.28 74.3608L267.577 76.0422L273.071 71.8041C275.208 70.1557 275.421 68.1171 274.058 66.3513C273.056 65.0523 271.8 64.6672 270.575 64.9751L270.493 64.8682L271.899 63.7837L270.654 62.1698L262.016 68.8328L263.313 70.5143L268.441 66.5581Z" fill="black"/>
<path d="M291.497 98.4986C294.091 96.7114 294.684 93.73 293.361 90.9539C291.741 87.556 288.001 86.2624 283.802 88.264C279.602 90.2657 278.246 93.9728 279.872 97.3836C281.247 100.269 284.06 101.516 286.861 100.708L285.914 98.7047C284.073 99.1656 282.477 98.1951 281.686 96.5346C280.613 94.2843 281.528 91.7633 284.74 90.2323C287.926 88.7135 290.483 89.5718 291.562 91.8349C292.36 93.5083 292.086 95.3615 290.543 96.4983L291.497 98.4986Z" fill="black"/>
<path d="M299.661 106.726L298.958 104.46L286.618 113.77L287.369 116.192L302.812 116.88L302.109 114.615L289.595 114.259L289.547 114.103L299.661 106.726Z" fill="black"/>
<path d="M299.967 145.076L299.35 138.656L297.519 138.833L298.136 145.252L299.967 145.076Z" fill="black"/>
<path d="M307.436 167.892L307.695 165.534L292.665 169.151L292.389 171.672L306.277 178.46L306.536 176.102L295.201 170.787L295.219 170.625L307.436 167.892Z" fill="black"/>
<path d="M289.075 188.784C288.326 191.766 290.02 194.264 293.293 195.085C296.585 195.912 299.258 194.51 300.007 191.528C300.756 188.545 299.061 186.047 295.768 185.221C292.496 184.399 289.823 185.801 289.075 188.784ZM290.802 189.224C291.291 187.275 293.221 186.793 295.253 187.303C297.278 187.811 298.772 189.153 298.283 191.102C297.797 193.038 295.847 193.515 293.822 193.007C291.789 192.497 290.316 191.16 290.802 189.224Z" fill="black"/>
<path d="M285.515 201.464L284.794 203.461L295.054 207.167L295.775 205.17L285.515 201.464ZM296.994 206.751C296.746 207.439 297.073 208.206 297.727 208.443C298.382 208.679 299.13 208.3 299.379 207.612C299.63 206.917 299.294 206.154 298.639 205.918C297.985 205.681 297.245 206.056 296.994 206.751Z" fill="black"/>
<path d="M281.941 210.607L281.057 212.538L287.114 215.312C288.412 215.906 288.89 217.335 288.263 218.704C288.08 219.105 287.802 219.524 287.686 219.659L289.533 220.504C289.647 220.322 289.841 219.95 289.953 219.705C290.486 218.542 290.282 217.246 289.382 216.397L289.43 216.294L291.005 217.015L291.86 215.149L281.941 210.607Z" fill="black"/>
<path d="M270.887 231.391L269.622 233.097L275.025 237.103C276.206 237.978 276.414 239.415 275.695 240.384C274.992 241.331 273.878 241.522 272.926 240.816L267.101 236.497L265.84 238.197L271.425 242.338C272.481 243.121 272.767 244.332 271.942 245.445C271.274 246.346 270.222 246.716 269.035 245.836L263.319 241.597L262.054 243.303L267.93 247.66C269.933 249.145 271.76 248.767 272.936 247.181C273.871 245.92 273.969 244.525 273.346 243.409L273.414 243.317C274.656 243.646 275.834 243.273 276.701 242.103C277.56 240.945 277.623 239.657 276.929 238.577L277.009 238.468L278.436 239.526L279.65 237.888L270.887 231.391Z" fill="black"/>
<path d="M253.392 252.243C251.217 254.417 251.388 257.431 253.773 259.817C256.173 262.217 259.186 262.389 261.361 260.214C263.536 258.04 263.366 255.027 260.965 252.626C258.58 250.24 255.567 250.069 253.392 252.243ZM254.647 253.509C256.069 252.088 257.972 252.666 259.453 254.147C260.93 255.624 261.522 257.543 260.101 258.964C258.689 260.375 256.771 259.782 255.295 258.305C253.813 256.823 253.236 254.92 254.647 253.509Z" fill="black"/>
<path d="M246.2 267.735C247.266 269.11 247.033 270.549 245.866 271.453C244.726 272.337 243.457 272.125 242.487 270.873L238.393 265.591L236.714 266.892L240.965 272.376C242.618 274.51 244.657 274.717 246.42 273.351C247.717 272.346 248.099 271.088 247.788 269.865L247.895 269.782L248.983 271.185L250.594 269.937L243.911 261.314L242.232 262.615L246.2 267.735Z" fill="black"/>
<path d="M214.313 290.864C216.106 293.454 219.089 294.04 221.862 292.71C225.256 291.083 226.541 287.34 224.53 283.145C222.518 278.95 218.808 277.603 215.401 279.236C212.519 280.618 211.278 283.434 212.093 286.234L214.094 285.282C213.629 283.441 214.595 281.844 216.254 281.048C218.502 279.97 221.025 280.879 222.563 284.088C224.09 287.271 223.237 289.83 220.977 290.914C219.305 291.715 217.451 291.446 216.311 289.906L214.313 290.864Z" fill="black"/>
<path d="M206.104 299.047L208.368 298.339L199.03 286.02L196.61 286.777L195.957 302.222L198.221 301.513L198.548 288.998L198.704 288.95L206.104 299.047Z" fill="black"/>
<path d="M167.755 299.442L174.173 298.81L173.993 296.979L167.575 297.611L167.755 299.442Z" fill="black"/>
</svg>
